<?xml version="1.0" encoding="utf-8"?>
<!-- Generator: Adobe Illustrator 20.1.0, SVG Export Plug-In . SVG Version: 6.00 Build 0)  -->
<svg version="1.1" id="Layer_1" xmlns="http://www.w3.org/2000/svg" xmlns:xlink="http://www.w3.org/1999/xlink" x="0px" y="0px"
	 viewBox="0 0 360 360" style="enable-background:new 0 0 360 360;" xml:space="preserve">
<style type="text/css">
	.st0{fill:#FFFFFF;}
</style>
<g>
	<path class="st0" d="M334.2,304.9c-0.2-0.7-24.5-69.2-64.5-138.4c-41.2-71.2-87.1-124.8-87.6-125.3l-1.6-1.8l-1.6,1.8
		c-0.5,0.5-46.3,54.1-87.6,125.3c-40,69.2-64.8,138-65.1,138.7l-0.8,2.3l2.4,0.4c0.7,0.1,72,12.8,151.6,12.8c0.3,0,0.5,0,0.8,0
		c82.3-0.1,151.6-13,152.3-13.2l2.4-0.4L334.2,304.9z M180.3,316.6c-0.3,0-0.5,0-0.8,0c-70.9,0-135.2-10.1-148.4-12.4
		c4.7-12.6,28.2-74,63.9-135.7c36.7-63.5,77.1-112.8,85.5-122.8c8.4,10,48.8,59.4,85.5,122.8c35.7,61.7,58.8,122.9,63.3,135.4
		C316.6,306.2,253.7,316.5,180.3,316.6z"/>
	<path class="st0" d="M270.6,198.3c0-23.7-19.3-43-43-43h-74.3l-1.2-1.7c-7.9-11.4-11.3-17.4-11.3-27.8c0-21.8,17.7-39.6,39.6-39.6
		c21.8,0,39.6,17.7,39.6,39.6c0,1.1,0.9,2.1,2.1,2.1s2.1-0.9,2.1-2.1c0-24.1-19.6-43.7-43.7-43.7c-24.1,0-43.7,19.6-43.7,43.7
		c0,11.8,4.4,19,11.6,29.5h-40.6v83.9v2.1v66.2c0,1.1,0.9,2.1,2.1,2.1s2.1-0.9,2.1-2.1v-66.2h98.2c5.7,8,9.9,15.4,9.9,25.7
		c0,21.8-17.7,39.6-39.6,39.6c-21.8,0-39.6-17.7-39.6-39.6c0-1.1-0.9-2.1-2.1-2.1s-2.1,0.9-2.1,2.1c0,24.1,19.6,43.7,43.7,43.7
		c24.1,0,43.7-19.6,43.7-43.7c0-10.4-3.7-17.9-9-25.7h4.3l47.3,65.6c0.4,0.6,1,0.9,1.7,0.9c0.4,0,0.8-0.1,1.2-0.4
		c0.9-0.7,1.1-2,0.5-2.9l-45.5-63.1h3.2C251.3,241.4,270.6,222.1,270.6,198.3z M111.7,159.5h39.4l55.8,77.7h-95.2V159.5z
		 M211.4,236.4l-55.2-76.9h71.3c21.4,0,38.9,17.4,38.9,38.9s-17.4,38.9-38.9,38.9H212C211.8,236.9,211.6,236.6,211.4,236.4z"/>
</g>
</svg>
