<?xml version="1.0" encoding="utf-8"?>
<!-- Generator: Adobe Illustrator 20.1.0, SVG Export Plug-In . SVG Version: 6.00 Build 0)  -->
<svg version="1.1" id="Layer_1" xmlns="http://www.w3.org/2000/svg" xmlns:xlink="http://www.w3.org/1999/xlink" x="0px" y="0px"
	 viewBox="0 0 315.5 34.5" style="enable-background:new 0 0 315.5 34.5;" xml:space="preserve">
<style type="text/css">
	.st0{fill:#FFFFFF;}
</style>
<g>
	<g>
		<path class="st0" d="M0,26.8l3.9-2.2c1.5,2.4,3.3,4.3,7.1,4.3c3.1,0,5.4-1.7,5.4-4.2c0-2.7-1.8-3.9-5.2-5.4l-2-0.9
			c-4.5-2-7.2-4.3-7.2-9c0-4.6,3.5-7.9,8.7-7.9c4.1,0,6.9,1.5,8.7,4.9l-3.8,2.3c-1.2-2-2.5-3-4.9-3c-2.5,0-4,1.5-4,3.6
			c0,2.3,1.3,3.4,4.4,4.7l2,0.9c5.3,2.3,8.1,4.8,8.1,9.7c0,5.4-4.2,8.5-10,8.5C5.3,33.2,1.8,30.3,0,26.8z"/>
		<path class="st0" d="M28.7,1.9h4.8v30.9h-4.8V1.9z"/>
		<path class="st0" d="M64.6,32.8h-5.5l-5.5-8.1c-0.9,0.1-1.7,0.2-2.6,0.2h-2.9v7.9h-4.8V1.9H51c8.5,0,13.3,4.4,13.3,11.5
			c0,4.8-2.1,8-6.2,9.8L64.6,32.8z M50.7,20.7c6.1,0,8.6-2.7,8.6-7.3s-2.5-7.3-8.6-7.3H48v14.6H50.7z"/>
		<path class="st0" d="M108.8,32.8h-5.5l-5.5-8.1c-0.9,0.1-1.7,0.2-2.6,0.2h-2.9v7.9h-4.8V1.9h7.7c8.5,0,13.3,4.4,13.3,11.5
			c0,4.8-2.1,8-6.2,9.8L108.8,32.8z M94.9,20.7c6.1,0,8.6-2.7,8.6-7.3s-2.5-7.3-8.6-7.3h-2.7v14.6H94.9z"/>
		<path class="st0" d="M113.4,17.4c0-9.2,7.1-15.8,15.9-15.8c8.8,0,15.9,6.6,15.9,15.8s-7.1,15.8-15.9,15.8
			C120.4,33.2,113.4,26.6,113.4,17.4z M140.3,17.4c0-6.6-4.5-11.5-11-11.5c-6.4,0-11,4.9-11,11.5s4.6,11.5,11,11.5
			S140.3,23.9,140.3,17.4z"/>
		<path class="st0" d="M148.7,26.8l3.9-2.2c1.5,2.4,3.3,4.3,7.1,4.3c3.1,0,5.4-1.7,5.4-4.2c0-2.7-1.8-3.9-5.2-5.4l-2-0.9
			c-4.5-2-7.2-4.3-7.2-9c0-4.6,3.5-7.9,8.7-7.9c4.1,0,6.9,1.5,8.7,4.9l-3.8,2.3c-1.2-2-2.5-3-4.9-3c-2.5,0-4,1.5-4,3.6
			c0,2.3,1.3,3.4,4.4,4.7l2,0.9c5.3,2.3,8.1,4.8,8.1,9.7c0,5.4-4.2,8.5-10,8.5C153.9,33.2,150.4,30.3,148.7,26.8z"/>
		<path class="st0" d="M177.6,1.9h19.6v4.2h-14.8v12h13.1v4.1h-13.1v6.3h15.4v4.2h-20.2V1.9z"/>
		<path class="st0" d="M245,1.9h19.6v4.2h-14.8v12h13.1v4.1h-13.1v6.3h15.4v4.2H245L245,1.9L245,1.9z"/>
		<path class="st0" d="M273.1,1.9h4.8v26.6h14.3v4.2h-19.1L273.1,1.9L273.1,1.9z"/>
		<path class="st0" d="M301.6,6.1h-9.2V1.9h23.1v4.2h-9.2v26.6h-4.8V6.1H301.6z"/>
	</g>
	<path class="st0" d="M220.7,4.6c4.7,0,9.1,0.4,12.4,0.7c-1.3,3.1-3.3,7.2-5.6,11.2c-2.4,4.2-5,7.8-6.9,10.5
		c-2-2.7-4.5-6.3-6.9-10.5c-2.4-4.1-4.3-8.2-5.6-11.2C211.3,5,215.8,4.6,220.7,4.6L220.7,4.6 M220.7,0h-0.1c-10.4,0-19,1.6-19,1.6
		s3,8.5,8,17.3c5.2,9,10.9,15.6,10.9,15.6s5.7-6.6,10.9-15.6c5.1-8.7,8.1-17.3,8.1-17.3S230.7,0,220.7,0L220.7,0z"/>
</g>
</svg>
